Coordinates
version=1
nRows=14
nColumns=24
inDegrees=yes

Units are S.I. units (second, meters, Newtons, ...)
Angles are in degrees.

endheader
time	pelvis_tilt	pelvis_list	pelvis_rotation	pelvis_tx	pelvis_ty	pelvis_tz	hip_flexion_r	hip_adduction_r	hip_rotation_r	knee_angle_r	ankle_angle_r	subtalar_angle_r	mtp_angle_r	hip_flexion_l	hip_adduction_l	hip_rotation_l	knee_angle_l	ankle_angle_l	subtalar_angle_l	mtp_angle_l	lumbar_extension	lumbar_bending	lumbar_rotation
      3.50500000	    -11.03559754	      4.56480566	     -8.75293315	     -1.12835463	     -0.04989786	      0.71830548	     -7.10387263	     -5.20082577	      7.93920355	    -15.56856169	      8.71259097	      8.03226781	     17.02841242	     40.62135853	     -0.16353840	     -6.90735869	    -23.87442387	     -0.89532159	      6.86981386	      7.17546094	      6.84192519	     -1.68603462	      9.87086893
      3.51000000	    -11.16128039	      4.90608548	     -8.73436355	     -1.11997799	     -0.05082892	      0.71853521	     -6.70170846	     -5.63194340	      7.35119722	    -16.75494324	      7.94831985	      8.81996754	     18.76514390	     40.83692159	      0.29244204	     -6.53700134	    -24.66790647	     -1.91211304	      6.06398453	      8.70315846	      7.07877702	     -2.22984477	      9.75074822
      3.51500000	    -11.41384837	      5.35213101	     -8.77359950	     -1.11148411	     -0.05177106	      0.71896890	     -6.05397044	     -6.13030269	      7.02752258	    -18.13857434	      7.22730664	      9.50321270	     19.44046644	     41.21987742	      0.78566102	     -6.15623869	    -25.58338342	     -2.40189876	      5.36474309	      8.95776928	      7.50603333	     -2.87098827	      9.76871286
      3.52000000	    -11.54718853	      5.78069889	     -8.71145345	     -1.10304180	     -0.05249322	      0.71923172	     -5.49912372	     -6.63079189	      6.60290207	    -19.52068723	      6.08082585	      9.96388973	     21.30448688	     41.52166860	      1.37605580	     -5.67965664	    -26.55876473	     -2.73477614	      4.49901801	      8.83102476	      7.77434844	     -3.52987297	      9.59947170
      3.52500000	    -11.70175615	      6.20914163	     -8.63586099	     -1.09462141	     -0.05318856	      0.71940744	     -4.82050027	     -7.14188149	      6.14740254	    -21.06002058	      4.85286034	     10.54761990	     22.97734340	     41.87807030	      1.99276709	     -5.17763519	    -27.61700051	     -2.59896249	      3.64569597	      7.56764325	      8.06230193	     -4.17598567	      9.44413253
      3.53000000	    -11.81391292	      6.68302550	     -8.53765722	     -1.08607655	     -0.05377122	      0.71954713	     -4.13200457	     -7.71349292	      5.72184799	    -22.64513808	      3.36050929	     11.04159682	     25.00689051	     42.17303738	      2.70313721	     -4.63334796	    -28.69061482	     -1.88252094	      2.82031234	      4.71846906	      8.32606734	     -4.87937565	      9.30568541
      3.53500000	    -11.88836012	      7.13276359	     -8.42935976	     -1.07758590	     -0.05429725	      0.71960659	     -3.39867357	     -8.27873444	      5.28099102	    -24.34171016	      1.72130089	     11.59595004	     26.98449929	     42.42107410	      3.41700751	     -4.16218503	    -29.76008604	     -0.82420899	      1.92156653	      0.71444820	      8.53106258	     -5.55301940	      9.13715691
      3.54000000	    -11.92661874	      7.60060451	     -8.30542391	     -1.06903622	     -0.05473853	      0.71966157	     -2.64890469	     -8.87135319	      4.85658083	    -26.07857396	     -0.15822484	     12.06123637	     29.11165072	     42.57910304	      4.16785622	     -3.76094489	    -30.74105215	      0.49093260	      0.98024488	     -4.26442689	      8.70596491	     -6.25174731	      8.94635638
      3.54500000	    -11.93208734	      8.05677818	     -8.16954682	     -1.06050226	     -0.05511601	      0.71971832	     -1.87998256	     -9.45501298	      4.47659813	    -27.85238078	     -2.25969081	     12.47343997	     31.33491556	     42.64377408	      4.91987059	     -3.41626351	    -31.61672749	      1.97259226	      0.03071377	     -9.85548959	      8.83783586	     -6.94482453	      8.72411109
      3.55000000	    -11.91733390	      8.47451910	     -8.02973818	     -1.05204037	     -0.05542060	      0.71973034	     -1.08119619	    -10.00373535	      4.14221444	    -29.64944270	     -4.55610881	     12.88937432	     33.58842273	     42.61002759	      5.64381258	     -3.08103578	    -32.34355686	      3.35338348	     -0.91481757	    -15.10161834	      8.93179719	     -7.58833011	      8.49681898
      3.55500000	    -11.94183173	      8.88297076	     -7.87304460	     -1.04364869	     -0.05575273	      0.71965072	     -0.17676652	    -10.53446722	      3.88561116	    -31.54862308	     -6.77159053	     13.53303780	     34.81291654	     42.56407009	      6.37707350	     -2.71132748	    -33.01522385	      5.31444889	     -1.68011769	    -21.95850970	      9.05444692	     -8.20222605	      8.25833407
      3.56000000	    -11.89855091	      9.20055795	     -7.71694178	     -1.03535975	     -0.05589718	      0.71969360	      0.65345526	    -10.95940832	      3.67023174	    -33.31842872	     -9.40165630	     13.92179532	     37.13826970	     42.33138245	      6.98216112	     -2.45467912	    -33.39983968	      5.49301469	     -2.50664535	    -22.63486945	      9.07335656	     -8.73787079	      8.00508193
      3.56500000	    -11.89559682	      9.51079071	     -7.53084825	     -1.02709996	     -0.05601487	      0.71970880	      1.55529530	    -11.36173836	      3.45354674	    -35.07864829	    -12.13863287	     14.18454818	     39.46066495	     42.08507578	      7.58039382	     -2.20286531	    -33.72880550	      5.85573676	     -3.08055533	    -23.35761757	      9.13260513	     -9.25990740	      7.72241354
      3.57000000	    -11.90076521	      9.80766074	     -7.33217573	     -1.01892960	     -0.05606158	      0.71964591	      2.49767716	    -11.74878577	      3.26225803	    -36.83630675	    -14.85330189	     14.50825953	     41.62586843	     41.79715248	      8.16699443	     -1.96305992	    -33.98800320	      6.22823143	     -3.52034811	    -23.76951690	      9.18762303	     -9.75309119	      7.41262599
